HIERARCHY
ROOT hip
{
  OFFSET 0 0 0
  CHANNELS 6 Xposition Yposition Zposition Zrotation Yrotation Xrotation
  JOINT abdomen
  {
    OFFSET 0 20.6881 -0.73152
    CHANNELS 3 Zrotation Xrotation Yrotation
    JOINT chest
    {
      OFFSET 0 11.7043 -0.48768
      CHANNELS 3 Zrotation Xrotation Yrotation
      JOINT neck
      {
        OFFSET 0 22.1894 -2.19456
        CHANNELS 3 Zrotation Xrotation Yrotation
        JOINT head
        {
          OFFSET -0.24384 7.07133 1.2192
          CHANNELS 3 Zrotation Xrotation Yrotation
          JOINT leftEye
          {
            OFFSET 4.14528 8.04674 8.04672
            CHANNELS 3 Zrotation Xrotation Yrotation
            End Site
            {
              OFFSET 1 0 0
            }
          }
          JOINT rightEye
          {
            OFFSET -3.6576 8.04674 8.04672
            CHANNELS 3 Zrotation Xrotation Yrotation
            End Site
            {
              OFFSET 1 0 0
            }
          }
        }
      }
      JOINT rCollar
      {
        OFFSET -2.68224 19.2634 -4.8768
        CHANNELS 3 Zrotation Xrotation Yrotation
        JOINT rShldr
        {
          OFFSET -8.77824 -1.95073 1.46304
          CHANNELS 3 Zrotation Xrotation Yrotation
          JOINT rForeArm
          {
            OFFSET -28.1742 -1.7115 0.48768
            CHANNELS 3 Zrotation Xrotation Yrotation
            JOINT rHand
            {
              OFFSET -22.5879 0.773209 7.07136
              CHANNELS 3 Zrotation Xrotation Yrotation
              JOINT rThumb1
              {
                OFFSET -1.2192 -0.487915 3.41376
                CHANNELS 3 Zrotation Xrotation Yrotation
                JOINT rThumb2
                {
                  OFFSET -3.37035 -0.52449 3.41376
                  CHANNELS 3 Zrotation Xrotation Yrotation
                  End Site
                  {
                    OFFSET -1.78271 -1.18214 1.43049
                  }
                }
              }
              JOINT rIndex1
              {
                OFFSET -7.75947 0.938293 5.60832
                CHANNELS 3 Zrotation Xrotation Yrotation
                JOINT rIndex2
                {
                  OFFSET -2.54057 -0.884171 1.56538
                  CHANNELS 3 Zrotation Xrotation Yrotation
                  End Site
                  {
                    OFFSET -1.62519 -0.234802 1.16502
                  }
                }
              }
              JOINT rMid1
              {
                OFFSET -8.24714 1.18213 3.41376
                CHANNELS 3 Zrotation Xrotation Yrotation
                JOINT rMid2
                {
                  OFFSET -3.10165 -0.590103 1.0647
                  CHANNELS 3 Zrotation Xrotation Yrotation
                  End Site
                  {
                    OFFSET -2.48547 -0.328903 0.83742
                  }
                }
              }
              JOINT rRing1
              {
                OFFSET -8.82822 0.546677 1.51678
                CHANNELS 3 Zrotation Xrotation Yrotation
                JOINT rRing2
                {
                  OFFSET -2.60934 -0.819778 -0.0198488
                  CHANNELS 3 Zrotation Xrotation Yrotation
                  End Site
                  {
                    OFFSET -2.33842 -0.294052 0.168128
                  }
                }
              }
              JOINT rPinky1
              {
                OFFSET -8.27202 -0.0477905 -0.4584
                CHANNELS 3 Zrotation Xrotation Yrotation
                JOINT rPinky2
                {
                  OFFSET -1.82734 -0.647385 -0.700984
                  CHANNELS 3 Zrotation Xrotation Yrotation
                  End Site
                  {
                    OFFSET -1.69225 -0.51767 -0.607171
                  }
                }
              }
            }
          }
        }
      }
      JOINT lCollar
      {
        OFFSET 2.68224 19.2634 -4.8768
        CHANNELS 3 Zrotation Xrotation Yrotation
        JOINT lShldr
        {
          OFFSET 8.77824 -1.95073 1.46304
          CHANNELS 3 Zrotation Xrotation Yrotation
          JOINT lForeArm
          {
            OFFSET 28.1742 -1.7115 0.48768
            CHANNELS 3 Zrotation Xrotation Yrotation
            JOINT lHand
            {
              OFFSET 22.5879 0.773209 7.07136
              CHANNELS 3 Zrotation Xrotation Yrotation
              JOINT lThumb1
              {
                OFFSET 1.2192 -0.487915 3.41376
                CHANNELS 3 Zrotation Xrotation Yrotation
                JOINT lThumb2
                {
                  OFFSET 3.37035 -0.52449 3.41376
                  CHANNELS 3 Zrotation Xrotation Yrotation
                  End Site
                  {
                    OFFSET 1.78271 -1.18214 1.43049
                  }
                }
              }
              JOINT lIndex1
              {
                OFFSET 7.75947 0.938293 5.60832
                CHANNELS 3 Zrotation Xrotation Yrotation
                JOINT lIndex2
                {
                  OFFSET 2.54057 -0.884171 1.56538
                  CHANNELS 3 Zrotation Xrotation Yrotation
                  End Site
                  {
                    OFFSET 1.62519 -0.234802 1.16502
                  }
                }
              }
              JOINT lMid1
              {
                OFFSET 8.24714 1.18213 3.41376
                CHANNELS 3 Zrotation Xrotation Yrotation
                JOINT lMid2
                {
                  OFFSET 3.10165 -0.590103 1.0647
                  CHANNELS 3 Zrotation Xrotation Yrotation
                  End Site
                  {
                    OFFSET 2.48547 -0.328903 0.83742
                  }
                }
              }
              JOINT lRing1
              {
                OFFSET 8.82822 0.546677 1.51678
                CHANNELS 3 Zrotation Xrotation Yrotation
                JOINT lRing2
                {
                  OFFSET 2.60934 -0.819778 -0.0198488
                  CHANNELS 3 Zrotation Xrotation Yrotation
                  End Site
                  {
                    OFFSET 2.33842 -0.294052 0.168128
                  }
                }
              }
              JOINT lPinky1
              {
                OFFSET 8.27202 -0.0477905 -0.4584
                CHANNELS 3 Zrotation Xrotation Yrotation
                JOINT lPinky2
                {
                  OFFSET 1.82734 -0.647385 -0.700984
                  CHANNELS 3 Zrotation Xrotation Yrotation
                  End Site
                  {
                    OFFSET 1.69225 -0.51767 -0.607171
                  }
                }
              }
            }
          }
        }
      }
    }
  }
  JOINT rButtock
  {
    OFFSET -8.77824 4.35084 1.2192
    CHANNELS 3 Zrotation Xrotation Yrotation
    JOINT rThigh
    {
      OFFSET 0 -1.70687 -2.19456
      CHANNELS 3 Zrotation Xrotation Yrotation
      JOINT rShin
      {
        OFFSET 0 -36.8199 0.73152
        CHANNELS 3 Zrotation Xrotation Yrotation
        JOINT rFoot
        {
          OFFSET 0.73152 -45.1104 -5.12064
          CHANNELS 3 Zrotation Xrotation Yrotation
          End Site
          {
            OFFSET -1.1221 -3.69964 12.103
          }
        }
      }
    }
  }
  JOINT lButtock
  {
    OFFSET 8.77824 4.35084 1.2192
    CHANNELS 3 Zrotation Xrotation Yrotation
    JOINT lThigh
    {
      OFFSET 0 -1.70687 -2.19456
      CHANNELS 3 Zrotation Xrotation Yrotation
      JOINT lShin
      {
        OFFSET 0 -36.8199 0.73152
        CHANNELS 3 Zrotation Xrotation Yrotation
        JOINT lFoot
        {
          OFFSET -0.73152 -45.1104 -5.12064
          CHANNELS 3 Zrotation Xrotation Yrotation
          End Site
          {
            OFFSET 1.1221 -3.69964 12.103
          }
        }
      }
    }
  }
}
MOTION
Frames:	6
Frame Time:	0.00833333
39.6265 80.6872 -57.4305 -533.012 186.602 -167.566 2.37361 -4.74189 4.03256 -1.56933 -0.212327 1.1148 -3.10137 9.43686 -5.34153 -5.24169 -15.0355 -10.8518 -0.0 0.0 0.0 -0.0 0.0 0.0 -1.07938e-14 6.08771e-14 2.7159e-14 74.9143 -2.46485 18.731 -27.4997 -28.1013 63.9645 -1.20813 -29.6013 -4.57824 2.48069e-10 3.87436e-10 3.03834e-10 4.21071e-10 6.84852e-10 5.30679e-10 2.48071e-10 3.87439e-10 3.03828e-10 7.73091 5.47488 0.417314 2.48067e-10 3.87427e-10 3.03832e-10 2.90554 0.965183 0.102902 2.48072e-10 3.87443e-10 3.03834e-10 10.2786 0.731801 0.0259123 2.48067e-10 3.87439e-10 3.0384e-10 2.22167 -0.733487 -0.20892 -1.08247e-14 6.08782e-14 2.69291e-14 -97.0974 64.342 16.2163 28.4096 -36.8011 -78.3601 0.408005 -17.8602 2.59559 -2.15096e-10 -2.4513e-09 -8.44616e-10 -3.61232e-10 -4.23941e-09 -1.46194e-09 -2.15091e-10 -2.45128e-09 -8.44597e-10 -7.73091 5.47488 -0.417314 -2.15096e-10 -2.4513e-09 -8.44612e-10 -2.90554 0.965183 -0.102902 -2.15105e-10 -2.4513e-09 -8.44612e-10 -10.2786 0.731801 -0.0259123 -2.15095e-10 -2.4513e-09 -8.44615e-10 -2.22167 -0.733487 0.20892 -2.03217e-16 0.0 -3.88251e-19 -19.3198 -49.0482 -21.796 -1.10459 60.5215 1.56334 -2.75334 -2.23801 -14.1851 2.03217e-16 0.0 3.88251e-19 -6.01618 -18.0767 -2.17714 0.169334 32.1963 -0.662614 0.117047 -16.3326 -1.01578
39.9084 80.7914 -56.9508 -534.699 187.32 -167.25 4.66796 -5.47162 3.89978 -1.95224 0.309346 1.05686 -3.54034 9.79666 -5.60316 -5.01098 -15.4689 -11.325 -0.0 0.0 0.0 -0.0 0.0 0.0 -6.22128e-14 4.08337e-14 5.939e-14 73.0607 -2.99707 20.5629 -27.1226 -26.7145 61.8548 -1.13508 -28.7819 -4.42714 2.74277e-10 2.47632e-10 2.90584e-10 4.65916e-10 4.45068e-10 5.09865e-10 2.74278e-10 2.47639e-10 2.90578e-10 7.73091 5.47488 0.417314 2.74276e-10 2.47631e-10 2.90583e-10 2.90554 0.965183 0.102902 2.74278e-10 2.47643e-10 2.90582e-10 10.2786 0.731801 0.0259123 2.74275e-10 2.47636e-10 2.9059e-10 2.22167 -0.733487 -0.20892 -6.23174e-14 4.08286e-14 5.91423e-14 -96.1264 64.6853 14.847 28.4029 -36.9647 -78.634 0.412931 -17.9625 2.6115 -1.64768e-10 -2.46654e-09 -1.01027e-09 -2.73326e-10 -4.25698e-09 -1.746e-09 -1.64765e-10 -2.46652e-09 -1.01025e-09 -7.73091 5.47488 -0.417314 -1.64767e-10 -2.46653e-09 -1.01026e-09 -2.90554 0.965183 -0.102902 -1.64778e-10 -2.46653e-09 -1.01026e-09 -10.2786 0.731801 -0.0259123 -1.64767e-10 -2.46653e-09 -1.01026e-09 -2.22167 -0.733487 0.20892 -2.03217e-16 0.0 -3.88251e-19 -18.2965 -48.862 -25.6472 -0.936361 57.8537 1.4107 -4.4086 -4.2139 -19.7628 2.03217e-16 0.0 3.88251e-19 -4.6675 -17.4342 -1.51841 0.155262 31.2663 -0.65975 0.30034 -16.6623 -0.606908
40.139 80.8973 -56.4846 -536.18 188.174 -166.757 6.37771 -6.07024 3.88465 -2.1631 0.754063 1.03624 -3.93676 10.0691 -5.87205 -4.83013 -15.7823 -11.8158 -0.0 0.0 0.0 -0.0 0.0 0.0 -6.71207e-14 -4.76695e-15 5.65542e-14 71.4921 -3.57394 22.1639 -26.717 -25.4352 59.9787 -1.09301 -28.2812 -4.3365 2.97779e-10 -1.73887e-10 1.00776e-10 5.10224e-10 -2.82691e-10 1.82971e-10 2.97781e-10 -1.7388e-10 1.0077e-10 7.73091 5.47488 0.417314 2.97779e-10 -1.73884e-10 1.00776e-10 2.90554 0.965183 0.102902 2.9778e-10 -1.73875e-10 1.00773e-10 10.2786 0.731801 0.0259123 2.97777e-10 -1.73884e-10 1.00782e-10 2.22167 -0.733487 -0.20892 -6.72621e-14 -4.77588e-15 5.63058e-14 -95.2819 65.0136 13.6093 28.3965 -37.0861 -78.8419 0.411712 -17.9396 2.6079 -8.15017e-11 -1.25933e-09 -6.37434e-10 -1.34361e-10 -2.16767e-09 -1.10039e-09 -8.14997e-11 -1.25932e-09 -6.37425e-10 -7.73091 5.47488 -0.417314 -8.14993e-11 -1.25932e-09 -6.37428e-10 -2.90554 0.965183 -0.102902 -8.15124e-11 -1.25932e-09 -6.37427e-10 -10.2786 0.731801 -0.0259123 -8.15001e-11 -1.25932e-09 -6.37428e-10 -2.22167 -0.733487 0.20892 -2.03217e-16 0.0 -3.88251e-19 -17.5954 -48.4489 -29.3533 -0.79739 55.2422 1.27889 -5.99304 -5.73162 -24.1427 2.03217e-16 0.0 3.88251e-19 -3.7095 -16.911 -0.765772 0.146564 30.5931 -0.653109 0.428545 -16.8905 -0.334616
40.3379 80.9414 -56.0428 -537.343 189.203 -166.102 7.30023 -6.53986 4.01447 -2.10091 1.12116 1.06077 -4.31004 10.2275 -6.15615 -4.68649 -15.916 -12.3326 -0.0 0.0 0.0 -0.0 0.0 0.0 9.64009e-15 -9.99164e-14 -9.88254e-15 70.2182 -4.173 23.4446 -26.3396 -24.3561 58.2993 -1.09677 -28.3176 -4.34343 3.41163e-10 -1.17896e-09 -4.49512e-10 5.9727e-10 -2.02009e-09 -7.681e-10 3.41166e-10 -1.17895e-09 -4.49521e-10 7.73091 5.47488 0.417314 3.41163e-10 -1.17895e-09 -4.49513e-10 2.90554 0.965183 0.102902 3.41164e-10 -1.17895e-09 -4.49515e-10 10.2786 0.731801 0.0259123 3.41159e-10 -1.17896e-09 -4.49506e-10 2.22167 -0.733487 -0.20892 9.52158e-15 -9.99253e-14 -1.00973e-14 -94.5603 65.3454 12.4645 28.3928 -37.1371 -78.9335 0.400924 -17.7191 2.57358 7.01173e-11 2.31439e-09 7.54948e-10 1.11598e-10 4.00179e-09 1.3057e-09 7.01181e-11 2.31439e-09 7.54955e-10 -7.73091 5.47488 -0.417314 7.012e-11 2.31439e-09 7.54954e-10 -2.90554 0.965183 -0.102902 7.01079e-11 2.31439e-09 7.54955e-10 -10.2786 0.731801 -0.0259123 7.01196e-11 2.31439e-09 7.54952e-10 -2.22167 -0.733487 0.20892 -2.03217e-16 0.0 -3.88251e-19 -17.3918 -47.7745 -33.3598 -0.677925 52.5362 1.15512 -7.19093 -6.80114 -26.9938 2.03217e-16 0.0 3.88251e-19 -3.24068 -16.5267 0.15124 0.144183 30.188 -0.639277 0.466789 -17.0321 -0.27743
40.5987 80.9174 -55.6209 -537.927 190.635 -165.668 7.81807 -6.95006 4.25167 -1.8579 1.4499 1.1178 -4.68484 10.3275 -6.44909 -4.55978 -15.9283 -12.861 -0.0 0.0 0.0 -0.0 0.0 0.0 1.4029e-13 -2.2845e-13 -1.14432e-13 69.114 -4.73384 24.5151 -25.9744 -23.3831 56.6886 -1.1269 -28.6621 -4.40636 3.86077e-10 -2.44993e-09 -1.22274e-09 6.92209e-10 -4.21982e-09 -2.10558e-09 3.8608e-10 -2.44992e-09 -1.22276e-09 7.73091 5.47488 0.417314 3.86077e-10 -2.44992e-09 -1.22275e-09 2.90554 0.965183 0.102902 3.86079e-10 -2.44992e-09 -1.22275e-09 10.2786 0.731801 0.0259123 3.86071e-10 -2.44993e-09 -1.22274e-09 2.22167 -0.733487 -0.20892 1.40229e-13 -2.28457e-13 -1.1459e-13 -93.9324 65.6793 11.3867 28.3927 -37.1329 -78.9279 0.383909 -17.3581 2.51766 2.75968e-10 7.40475e-09 2.80806e-09 4.44056e-10 1.27882e-08 4.85283e-09 2.75967e-10 7.40475e-09 2.80806e-09 -7.73091 5.47488 -0.417314 2.75971e-10 7.40476e-09 2.80806e-09 -2.90554 0.965183 -0.102902 2.75961e-10 7.40476e-09 2.80806e-09 -10.2786 0.731801 -0.0259123 2.75971e-10 7.40475e-09 2.80806e-09 -2.22167 -0.733487 0.20892 -2.03217e-16 0.0 -3.88251e-19 -17.1073 -46.7252 -37.3977 -0.565267 49.4299 1.02921 -8.16764 -7.75802 -28.8946 2.03217e-16 0.0 3.88251e-19 -2.9816 -16.2522 1.17996 0.147404 30.0086 -0.620417 0.432541 -17.0866 -0.394055
41.0725 80.8661 -55.1311 -537.7 191.561 -165.772 8.11148 -7.24295 4.56325 -1.59514 1.71228 1.19913 -5.00321 10.3875 -6.73672 -4.48247 -15.9114 -13.3885 -0.0 0.0 0.0 -0.0 0.0 0.0 2.66559e-13 -3.48511e-13 -2.12008e-13 68.2358 -5.3582 25.4964 -25.6138 -22.4863 55.1889 -1.15642 -28.9954 -4.46757 3.95466e-10 -3.5459e-09 -1.90825e-09 7.23808e-10 -6.11861e-09 -3.29208e-09 3.95468e-10 -3.5459e-09 -1.90826e-09 7.73091 5.47488 0.417314 3.95465e-10 -3.5459e-09 -1.90825e-09 2.90554 0.965183 0.102902 3.95468e-10 -3.5459e-09 -1.90825e-09 10.2786 0.731801 0.0259123 3.95457e-10 -3.5459e-09 -1.90824e-09 2.22167 -0.733487 -0.20892 2.66559e-13 -3.48515e-13 -2.12118e-13 -93.452 65.9874 10.5057 28.3932 -37.1288 -78.9192 0.366717 -16.9764 2.45889 4.66958e-10 1.2075e-08 4.70861e-09 7.52531e-10 2.08491e-08 8.13624e-09 4.66956e-10 1.2075e-08 4.70861e-09 -7.73091 5.47488 -0.417314 4.6696e-10 1.2075e-08 4.70861e-09 -2.90554 0.965183 -0.102902 4.66953e-10 1.2075e-08 4.70861e-09 -10.2786 0.731801 -0.0259123 4.66962e-10 1.2075e-08 4.70861e-09 -2.22167 -0.733487 0.20892 -2.03217e-16 0.0 -3.88251e-19 -16.6164 -45.5503 -40.544 -0.477677 46.492 0.923247 -8.92328 -8.57569 -30.0954 2.03217e-16 0.0 3.88251e-19 -2.90806 -16.0625 2.20558 0.154515 30.0618 -0.602209 0.382819 -17.0223 -0.541121
